<?xml version="1.0" encoding="utf-8"?>
<!-- Generator: Adobe Illustrator 18.1.1, SVG Export Plug-In . SVG Version: 6.00 Build 0)  -->
<svg version="1.1" id="Layer_1" xmlns="http://www.w3.org/2000/svg" xmlns:xlink="http://www.w3.org/1999/xlink" x="0px" y="0px"
	 viewBox="0 0 52 12.1" enable-background="new 0 0 52 12.1" xml:space="preserve">
<g>
	<g>
		<path fill="#FF5F56" d="M6,11.6c-3,0-5.5-2.5-5.5-5.5S3,0.5,6,0.5S11.6,3,11.6,6S9.1,11.6,6,11.6z"/>
		<path fill="#DF4845" d="M6,1c2.8,0,5,2.3,5,5s-2.3,5-5,5S1,8.8,1,6S3.3,1,6,1 M6,0C2.7,0,0,2.7,0,6c0,3.3,2.7,6,6,6
			c3.3,0,6-2.7,6-6C12.1,2.7,9.4,0,6,0L6,0z"/>
	</g>
	<g>
		<path fill="#FFBD2E" d="M26,11.6c-3,0-5.5-2.5-5.5-5.5S23,0.5,26,0.5S31.5,3,31.5,6S29,11.6,26,11.6z"/>
		<path fill="#DEA034" d="M26,1c2.8,0,5,2.3,5,5s-2.3,5-5,5c-2.8,0-5-2.3-5-5S23.2,1,26,1 M26,0c-3.3,0-6,2.7-6,6c0,3.3,2.7,6,6,6
			c3.3,0,6-2.7,6-6C32,2.7,29.3,0,26,0L26,0z"/>
	</g>
	<g>
		<path fill="#27C93F" d="M46,11.6c-3,0-5.5-2.5-5.5-5.5s2.5-5.5,5.5-5.5S51.5,3,51.5,6S49,11.6,46,11.6z"/>
		<path fill="#28AB35" d="M46,1c2.8,0,5,2.3,5,5s-2.3,5-5,5s-5-2.3-5-5S43.2,1,46,1 M46,0c-3.3,0-6,2.7-6,6c0,3.3,2.7,6,6,6
			s6-2.7,6-6C52,2.7,49.3,0,46,0L46,0z"/>
	</g>
</g>
</svg>
